<svg xmlns="http://www.w3.org/2000/svg" xmlns:xlink="http://www.w3.org/1999/xlink" width="123.557" height="123.557" viewBox="0 0 123.557 123.557">
  <defs>
    <filter id="Path_230" x="0" y="0" width="123.557" height="123.557" filterUnits="userSpaceOnUse">
      <feOffset dy="3" input="SourceAlpha"/>
      <feGaussianBlur stdDeviation="3" result="blur"/>
      <feFlood flood-opacity="0.161"/>
      <feComposite operator="in" in2="blur"/>
      <feComposite in="SourceGraphic"/>
    </filter>
  </defs>
  <g id="Group_407" data-name="Group 407" transform="translate(9 6)">
    <g transform="matrix(1, 0, 0, 1, -9, -6)" filter="url(#Path_230)">
      <path id="Path_230-2" data-name="Path 230" d="M105.557,52.778A52.65,52.65,0,0,1,87.828,92.221a50.788,50.788,0,0,1-7.6,5.638c-.928.566-1.868,1.109-2.83,1.619a52.881,52.881,0,0,1-33.2,5.377,50.919,50.919,0,0,1-5.887-1.3A52.632,52.632,0,0,1,17.344,91.892a52.073,52.073,0,0,1-5.4-5.66,52.783,52.783,0,1,1,93.613-33.453" transform="translate(9 6)" fill="#fff"/>
    </g>
    <path id="Path_231" data-name="Path 231" d="M26.724,34.826A7.878,7.878,0,1,0,34.6,26.948a7.878,7.878,0,0,0-7.878,7.878" transform="translate(3.53 3.56)" fill="#e56445"/>
    <path id="Path_232" data-name="Path 232" d="M21.174,43.918a6.494,6.494,0,1,0,6.494-6.494,6.494,6.494,0,0,0-6.494,6.494" transform="translate(2.797 4.944)" fill="#e56445"/>
    <path id="Path_233" data-name="Path 233" d="M19.9,54.179a6.494,6.494,0,1,0,6.494-6.494A6.494,6.494,0,0,0,19.9,54.179" transform="translate(2.629 6.299)" fill="#e56445"/>
    <path id="Path_234" data-name="Path 234" d="M22.048,63.206a5.294,5.294,0,1,0,5.294-5.294,5.294,5.294,0,0,0-5.294,5.294" transform="translate(2.912 7.65)" fill="#e56445"/>
    <path id="Path_235" data-name="Path 235" d="M80.234,84.379a50.79,50.79,0,0,1-7.6,5.638c-.928.566-1.868,1.109-2.83,1.619L57.49,59.36c.215.125.4.226.577.351.238.147.555.351.928.589.26.181.566.374.883.6,3.759,2.559,10.936,7.947,14.864,14.287,1.438,2.309,3.509,5.819,5.491,9.193" transform="translate(7.595 7.841)" fill="#fcb35b"/>
    <path id="Path_236" data-name="Path 236" d="M75.871,90.387c-.928.566-1.868,1.109-2.83,1.619a52.881,52.881,0,0,1-33.2,5.377,50.917,50.917,0,0,1-5.887-1.3L33.01,60.9s14.049-8.932,27.714-1.166c.215.125.4.226.577.351.238.147.555.351.928.589.26.181.566.374.883.6.645.464,1.268.951,1.891,1.483,5.91,5.083,9.125,16.155,10.868,27.634" transform="translate(4.361 7.471)" fill="#fcb35b"/>
    <path id="Path_237" data-name="Path 237" d="M40.982,47.934l-.388,11.9s2.033,3.49,8.974,4.283c5.173.59,6.9-2.019,6.9-2.019l-.917-10.452L43.074,48.469Z" transform="translate(5.362 6.332)" fill="#fca397"/>
    <path id="Path_238" data-name="Path 238" d="M42.785,48.406a3.905,3.905,0,0,0,.308,1.159c2.469,6.03,9.7,7.549,12.691,7.914l-.522-5.9Z" transform="translate(5.652 6.394)"/>
    <path id="Path_239" data-name="Path 239" d="M60,27.875S65.76,43,63.027,51.2s-10.248,6.533-14.706,4.706A15.024,15.024,0,0,1,41.893,51.2a6.4,6.4,0,0,1-6.95-2.844c-2.643-4.076-.682-8.516,1.788-9.436s5.261.965,5.261.965l-2.047-4.412S50.482,14.059,60,27.875" transform="translate(4.449 3.069)" fill="#fca397"/>
    <path id="Path_240" data-name="Path 240" d="M42.173,96.877a50.91,50.91,0,0,1-5.887-1.3A52.633,52.633,0,0,1,15.32,83.915c.294-1.2.634-2.4,1.019-3.577C20.98,66.107,35.347,60.39,35.347,60.39l1.7,6.962A62.339,62.339,0,0,1,39.8,79.545Z" transform="translate(2.024 7.978)" fill="#fcb35b"/>
    <path id="Path_241" data-name="Path 241" d="M58.842,33.467a.565.565,0,0,1-.528-.361.375.375,0,0,0-.237-.258,2.407,2.407,0,0,0-1.5.391A.566.566,0,0,1,56,32.269a3.412,3.412,0,0,1,2.446-.492,1.5,1.5,0,0,1,.927.919.566.566,0,0,1-.323.732.547.547,0,0,1-.2.038" transform="translate(7.361 4.186)"/>
    <path id="Path_242" data-name="Path 242" d="M52.223,37.126a.563.563,0,0,1-.388-.154,2.534,2.534,0,0,0-1.584-.717.965.965,0,0,0-.694.455.566.566,0,0,1-.92-.66,2.084,2.084,0,0,1,1.511-.922,3.6,3.6,0,0,1,2.466,1.021.566.566,0,0,1-.391.976" transform="translate(6.411 4.639)"/>
    <path id="Path_243" data-name="Path 243" d="M56.585,37.087a.575.575,0,0,1-.281-.074.566.566,0,0,1-.211-.772,2.546,2.546,0,0,1,3.4-1.1.566.566,0,1,1-.5,1.015,1.436,1.436,0,0,0-1.916.649.567.567,0,0,1-.492.286" transform="translate(7.4 4.603)"/>
    <path id="Path_244" data-name="Path 244" d="M55.832,44.064a.694.694,0,0,1-.084-.006.567.567,0,0,1-.477-.644,14.08,14.08,0,0,0-1.017-6.147.566.566,0,0,1,1.045-.435,14.967,14.967,0,0,1,1.091,6.75.566.566,0,0,1-.559.482" transform="translate(7.161 4.82)"/>
    <path id="Path_245" data-name="Path 245" d="M52.711,47.273a.546.546,0,0,1-.157-.023c-.128-.037-3.169-.941-3.99-3.4a.566.566,0,0,1,1.074-.359c.632,1.9,3.2,2.667,3.231,2.675a.566.566,0,0,1-.158,1.109" transform="translate(6.412 5.693)"/>
    <path id="Path_246" data-name="Path 246" d="M40.924,44.217a.559.559,0,0,1-.382-.148l-4.561-4.174a.566.566,0,0,1,.764-.836l4.56,4.174a.566.566,0,0,1-.382.984" transform="translate(4.729 5.14)"/>
    <path id="Path_247" data-name="Path 247" d="M36.165,43.638a.566.566,0,0,1-.221-1.087l3.066-1.3a.566.566,0,1,1,.442,1.043l-3.066,1.3a.566.566,0,0,1-.221.045" transform="translate(4.703 5.443)"/>
    <path id="Path_248" data-name="Path 248" d="M41.811,40.269a13.375,13.375,0,0,0,8.719-4.381,35.126,35.126,0,0,0,5.246-8.414,6.485,6.485,0,0,1,3.5,2.295c.971,1.338,2.1,3.268,2.1,3.268s.413-5.99-2.459-9.081-5.512-2.2-5.512-2.2-6.437-4.09-13.464,1.548-4.4,16.6-4.4,16.6,3.478-1.191,6.271.362" transform="translate(4.631 2.685)" fill="#e56445"/>
    <path id="Path_249" data-name="Path 249" d="M50.591,63.37c-.449,0-.911-.018-1.389-.057a19.813,19.813,0,0,1-10.08-3.94.566.566,0,0,1,.717-.875,19.016,19.016,0,0,0,9.455,3.686,15.328,15.328,0,0,0,9.169-2.094.567.567,0,0,1,.643.933,16,16,0,0,1-8.515,2.347" transform="translate(5.14 7.711)" fill="#7772d3"/>
    <path id="Path_250" data-name="Path 250" d="M48.826,34.238a.565.565,0,0,1-.475-.872,3.37,3.37,0,0,1,2.2-1.62,3.94,3.94,0,0,1,2.767.641.566.566,0,0,1-.654.924,2.852,2.852,0,0,0-1.9-.452A2.3,2.3,0,0,0,49.3,33.978a.563.563,0,0,1-.477.26" transform="translate(6.375 4.186)"/>
  </g>
</svg>
