<svg id="Layer_2" data-name="Layer 2" xmlns="http://www.w3.org/2000/svg" width="25" height="25" viewBox="0 0 25 25">
  <g id="invisible_box" data-name="invisible box">
    <rect id="Rectangle_529" data-name="Rectangle 529" width="25" height="25" fill="none"/>
  </g>
  <g id="icons_Q2" data-name="icons Q2" transform="translate(1.042 3.124)">
    <path id="Path_39" data-name="Path 39" d="M17.573,6H3.094A1.042,1.042,0,0,0,2,7.04V21.624a.521.521,0,0,0,.521.521.677.677,0,0,0,.417-.156l4.792-4.531h9.844a1.042,1.042,0,0,0,1.094-1.042V7.04A1.042,1.042,0,0,0,17.573,6Z" transform="translate(-2 -5.997)" fill="#006e7d"/>
    <path id="Path_40" data-name="Path 40" d="M29.573,15H26.5v8.854H14v1.563a1.042,1.042,0,0,0,1.094,1.042h9.844l4.792,4.531a.677.677,0,0,0,.417.156.521.521,0,0,0,.521-.521V16.04A1.042,1.042,0,0,0,29.573,15Z" transform="translate(-7.75 -10.31)" fill="#006e7d"/>
  </g>
</svg>
