<svg id="apps" xmlns="http://www.w3.org/2000/svg" width="24" height="24" viewBox="0 0 24 24">
  <path id="Path_21" data-name="Path 21" d="M3.911,0H6.844a3.911,3.911,0,0,1,3.911,3.911V6.844a3.911,3.911,0,0,1-3.911,3.911H3.911A3.911,3.911,0,0,1,0,6.844V3.911A3.911,3.911,0,0,1,3.911,0Z" fill="#fff"/>
  <path id="Path_22" data-name="Path 22" d="M281.245,0h2.933a3.911,3.911,0,0,1,3.911,3.911V6.844a3.911,3.911,0,0,1-3.911,3.911h-2.933a3.911,3.911,0,0,1-3.911-3.911V3.911A3.911,3.911,0,0,1,281.245,0Z" transform="translate(-264.088)" fill="#fff"/>
  <path id="Path_23" data-name="Path 23" d="M3.911,277.333H6.844a3.911,3.911,0,0,1,3.911,3.911v2.933a3.911,3.911,0,0,1-3.911,3.911H3.911A3.911,3.911,0,0,1,0,284.177v-2.933A3.911,3.911,0,0,1,3.911,277.333Z" transform="translate(0 -264.087)" fill="#fff"/>
  <path id="Path_24" data-name="Path 24" d="M281.245,277.333h2.933a3.911,3.911,0,0,1,3.911,3.911v2.933a3.911,3.911,0,0,1-3.911,3.911h-2.933a3.911,3.911,0,0,1-3.911-3.911v-2.933A3.911,3.911,0,0,1,281.245,277.333Z" transform="translate(-264.088 -264.087)" fill="#fff"/>
</svg>
