<svg xmlns="http://www.w3.org/2000/svg" width="14.997" height="14.609" viewBox="0 0 14.997 14.609">
  <path id="eye-crossed" d="M14.535,6.593A10.386,10.386,0,0,0,12.429,4l1.749-1.86a.694.694,0,0,0,0-.939.6.6,0,0,0-.883,0l-1.9,2.025A7.191,7.191,0,0,0,7.494,2.1C3.627,2.1,1.423,4.915.454,6.593a3.437,3.437,0,0,0,0,3.429,10.386,10.386,0,0,0,2.106,2.6L.81,14.478a.694.694,0,0,0,0,.939.6.6,0,0,0,.883,0L3.6,13.39a7.191,7.191,0,0,0,3.894,1.125c3.867,0,6.071-2.815,7.041-4.493A3.437,3.437,0,0,0,14.535,6.593ZM1.518,9.326a2.043,2.043,0,0,1,0-2.038c.833-1.439,2.717-3.86,5.976-3.86a6.009,6.009,0,0,1,2.977.774L9.214,5.54a2.981,2.981,0,0,0-3.93.418,3.475,3.475,0,0,0-.393,4.179L3.448,11.67a8.971,8.971,0,0,1-1.93-2.344Zm7.85-1.019A1.936,1.936,0,0,1,7.494,10.3a1.754,1.754,0,0,1-.8-.2L9.181,7.454A2.063,2.063,0,0,1,9.368,8.307Zm-3.748,0A1.936,1.936,0,0,1,7.494,6.315a1.754,1.754,0,0,1,.8.2L5.808,9.161a2.063,2.063,0,0,1-.187-.854Zm7.85,1.019c-.833,1.439-2.717,3.86-5.976,3.86a6.009,6.009,0,0,1-2.977-.774l1.257-1.337a2.981,2.981,0,0,0,3.93-.418A3.475,3.475,0,0,0,10.1,6.479L11.54,4.944a8.971,8.971,0,0,1,1.93,2.344,2.043,2.043,0,0,1,0,2.038Z" transform="translate(0.004 -1.003)"/>
</svg>
