<svg id="Layer_2" data-name="Layer 2" xmlns="http://www.w3.org/2000/svg" width="25" height="25" viewBox="0 0 25 25">
  <g id="invisible_box" data-name="invisible box">
    <rect id="Rectangle_528" data-name="Rectangle 528" width="25" height="25" fill="none"/>
  </g>
  <g id="icons_Q2" data-name="icons Q2" transform="translate(2.064 1.032)">
    <g id="Group_165" data-name="Group 165">
      <path id="Path_36" data-name="Path 36" d="M24.246,26.119V18.173a3.973,3.973,0,0,0-7.946,0v7.946A5.521,5.521,0,0,0,18.364,30.4a.929.929,0,0,0,.464.206.722.722,0,0,0,.619-.31.774.774,0,0,0-.1-1.135A3.818,3.818,0,0,1,17.9,26.119V18.173a2.373,2.373,0,1,1,4.747,0v7.946a.774.774,0,0,1-.774.774.826.826,0,0,1-.826-.774V18.173a.774.774,0,1,0-1.548,0v8.1a2.373,2.373,0,0,0,2.373,2.219,2.425,2.425,0,0,0,2.373-2.219Z" transform="translate(-9.954 -7.905)" fill="#006e7d"/>
      <path id="Path_37" data-name="Path 37" d="M17.32,8.1a7.12,7.12,0,0,0-7.12,7.12v7.946a8.771,8.771,0,0,0,.98,4.076.826.826,0,0,0,.722.413l.361-.1a.826.826,0,0,0,.31-1.084,7.275,7.275,0,0,1-.826-3.3V15.22a5.572,5.572,0,1,1,11.145,0v7.946a4.076,4.076,0,0,1-1.5,3.1.8.8,0,0,0,.516,1.393.826.826,0,0,0,.464-.155,5.469,5.469,0,0,0,2.064-4.334V15.22A7.12,7.12,0,0,0,17.32,8.1Z" transform="translate(-7.001 -4.953)" fill="#006e7d"/>
      <path id="Path_38" data-name="Path 38" d="M14.319,2A10.319,10.319,0,0,0,4,12.268v9.545a.774.774,0,0,0,.774.774.826.826,0,0,0,.826-.774V12.268a8.72,8.72,0,0,1,17.439,0v7.946a6.656,6.656,0,0,1-.826,3.3.774.774,0,0,0,.361,1.084l.361.1a.722.722,0,0,0,.671-.413,8.513,8.513,0,0,0,1.032-3.715V12.268A10.319,10.319,0,0,0,14.319,2Z" transform="translate(-4 -2)" fill="#006e7d"/>
    </g>
  </g>
</svg>
