<svg id="Layer_2" data-name="Layer 2" xmlns="http://www.w3.org/2000/svg" width="25" height="25" viewBox="0 0 25 25">
  <g id="invisible_box" data-name="invisible box">
    <rect id="Rectangle_525" data-name="Rectangle 525" width="25" height="25" fill="none"/>
  </g>
  <g id="icons_Q2" data-name="icons Q2" transform="translate(2.081 2.081)">
    <path id="Path_31" data-name="Path 31" d="M23.771,4H5.041A1.041,1.041,0,0,0,4,5.041V23.771a1.03,1.03,0,0,0,1.769.728l4.058-3.85H23.771a1.041,1.041,0,0,0,1.041-1.041V5.041A1.041,1.041,0,0,0,23.771,4ZM15.447,16.7c-.052.052-.052.1-.1.208s-.052.1-.052.156l-.156.156a.989.989,0,0,1-1.457,0l-.156-.156c0-.052-.052-.1-.052-.156a.394.394,0,0,0-.1-.208v-.208a1.041,1.041,0,0,1,.312-.728.989.989,0,0,1,1.457,0,1.041,1.041,0,0,1,.312.728Zm.416-2.862h-.208l-.572.26a.989.989,0,0,1-.676.312.832.832,0,0,1-.676-.312.989.989,0,0,1-.052-1.457,3.33,3.33,0,0,1,1.145-.624l.156-.1a1.353,1.353,0,0,0,.937-1.509,1.561,1.561,0,0,0-1.2-1.2A1.717,1.717,0,0,0,13,9.983a.989.989,0,0,1-1.4.416,1.093,1.093,0,0,1-.416-1.4,3.746,3.746,0,0,1,3.954-1.821A3.694,3.694,0,0,1,18,9.983a3.538,3.538,0,0,1-2.133,3.85Z" transform="translate(-4 -4)" fill="#006e7d"/>
  </g>
</svg>
