<svg id="Layer_2" data-name="Layer 2" xmlns="http://www.w3.org/2000/svg" width="25" height="25" viewBox="0 0 25 25">
  <g id="invisible_box" data-name="invisible box">
    <rect id="Rectangle_526" data-name="Rectangle 526" width="25" height="25" fill="none"/>
  </g>
  <g id="icons_Q2" data-name="icons Q2" transform="translate(3.125 1.042)">
    <path id="Path_32" data-name="Path 32" d="M15.375,2S6,4.656,6,5.125V14.6c0,4.792,6.927,9.01,8.854,10.156a.937.937,0,0,0,1.042,0C17.875,23.667,24.75,19.4,24.75,14.6V5.125C24.75,4.656,15.375,2,15.375,2Zm4.9,8.542-5.729,5.729a.99.99,0,0,1-1.458,0l-2.552-2.552a1.146,1.146,0,0,1-.208-1.406,1.042,1.042,0,0,1,1.615-.1l1.875,1.875,5-5a1.042,1.042,0,0,1,1.458,1.458Z" transform="translate(-6 -2)" fill="#006e7d"/>
  </g>
</svg>
