<svg xmlns="http://www.w3.org/2000/svg" width="25.698" height="30" viewBox="0 0 25.698 30">
  <g id="ic_payment_history" transform="translate(-21.495 -285)">
    <g id="history" transform="translate(27.261 285)">
      <path id="Path_41453" data-name="Path 41453" d="M61.277,7.026a.673.673,0,0,0,0-1.347H58.141V3.036a.673.673,0,1,0-1.347,0V6.353a.674.674,0,0,0,.673.673Z" transform="translate(-45.011 1)" fill="#006e7d"/>
      <line id="Line_36" data-name="Line 36" x2="8" transform="translate(0.239 22.5)" fill="none" stroke="#006e7d" stroke-linecap="round" stroke-width="2"/>
      <line id="Line_37" data-name="Line 37" x2="8" transform="translate(0.239 18.5)" fill="none" stroke="#006e7d" stroke-linecap="round" stroke-width="2"/>
      <line id="Line_38" data-name="Line 38" x2="8" transform="translate(0.239 14.5)" fill="none" stroke="#006e7d" stroke-linecap="round" stroke-width="2"/>
      <g id="Ellipse_643" data-name="Ellipse 643" transform="translate(5.932)" fill="none" stroke="#006e7d" stroke-linecap="round" stroke-linejoin="round" stroke-width="2">
        <circle cx="7" cy="7" r="7" stroke="none"/>
        <circle cx="7" cy="7" r="6" fill="none"/>
      </g>
    </g>
    <path id="Path_41454" data-name="Path 41454" d="M515.137,4388.494h-4.95a1.728,1.728,0,0,0-1.749,1.749c0,1.731.043,19.909.043,19.909a2.352,2.352,0,0,0,2.556,2.533h13.555c.764,0,2.187-.127,2.187-2.023v-9.524" transform="translate(-485.943 -4098.685)" fill="none" stroke="#006e7d" stroke-linecap="round" stroke-linejoin="round" stroke-width="2"/>
  </g>
</svg>
