<svg xmlns="http://www.w3.org/2000/svg" width="20.667" height="26" viewBox="0 0 20.667 26">
  <g id="ic_privacy_policy" transform="translate(-24.5 -756.5)">
    <path id="Path_41478" data-name="Path 41478" d="M21,27H7.667A2.667,2.667,0,0,1,5,24.333V5.667A2.667,2.667,0,0,1,7.667,3h7.448a1.333,1.333,0,0,1,.942.39l7.219,7.219a1.333,1.333,0,0,1,.391.943V24.333A2.667,2.667,0,0,1,21,27Z" transform="translate(20.5 754.5)" fill="none" stroke="#006e7d" stroke-linecap="round" stroke-linejoin="round" stroke-width="2"/>
    <g id="insurance_1_" data-name="insurance (1)" transform="translate(-35.75 755.412)">
      <path id="Path_41480" data-name="Path 41480" d="M151.566,163.966a2.43,2.43,0,0,1-2.186-1.351l-.1-.208a.737.737,0,0,0-.659-.408h-3.932a.737.737,0,0,0-.659.408l-.1.207a2.43,2.43,0,0,1-2.186,1.351.737.737,0,0,0-.737.737v4.207a7.633,7.633,0,0,0,5.44,7.311.737.737,0,0,0,.424,0,7.633,7.633,0,0,0,5.44-7.311V164.7A.737.737,0,0,0,151.566,163.966Zm-.737,4.944a6.119,6.119,0,0,1-4.177,5.832,6.119,6.119,0,0,1-4.177-5.832v-3.538a3.889,3.889,0,0,0,2.66-1.9h3.035a3.89,3.89,0,0,0,2.66,1.9Z" transform="translate(-76.068 -154.038)" fill="#006e7d"/>
      <path id="Path_41481" data-name="Path 41481" d="M202.96,263.931,200.7,266.19l-.869-.869a.737.737,0,1,0-1.043,1.043l1.39,1.39a.737.737,0,0,0,1.042,0l2.78-2.78a.737.737,0,1,0-1.042-1.043Z" transform="translate(-130.812 -250.755)" fill="#006e7d" stroke="#006e7d" stroke-width="0.5"/>
    </g>
  </g>
</svg>
