<svg id="Layer_2" data-name="Layer 2" xmlns="http://www.w3.org/2000/svg" width="23" height="23" viewBox="0 0 23 23">
  <g id="invisible_box" data-name="invisible box">
    <rect id="Rectangle_751" data-name="Rectangle 751" width="23" height="23" fill="none"/>
  </g>
  <g id="icons_Q2" data-name="icons Q2" transform="translate(0.959 0.959)">
    <g id="Group_307" data-name="Group 307">
      <path id="Path_181" data-name="Path 181" d="M20.3,15.034l2.635-.719a11.021,11.021,0,0,0,0-3.546L20.3,10.05A.862.862,0,0,1,19.777,8.8l1.342-2.4a9.871,9.871,0,0,0-2.444-2.444l-2.4,1.342-.383.1a.863.863,0,0,1-.862-.623l-.719-2.635a11.021,11.021,0,0,0-3.546,0L10.05,4.779a.863.863,0,0,1-.863.623l-.383-.1-2.4-1.342A9.871,9.871,0,0,0,3.965,6.409L5.306,8.8a.863.863,0,0,1-.527,1.246l-2.635.719a11.021,11.021,0,0,0,0,3.546l2.635.719a.863.863,0,0,1,.527,1.246l-1.342,2.4a9.871,9.871,0,0,0,2.444,2.444l2.4-1.342.383-.1a.862.862,0,0,1,.863.623l.719,2.635a11.021,11.021,0,0,0,3.546,0l.719-2.635a.862.862,0,0,1,.863-.623l.383.1,2.4,1.342a9.871,9.871,0,0,0,2.444-2.444l-1.342-2.4a.862.862,0,0,1,.527-1.246Zm-.575-1.869h-.1A2.923,2.923,0,0,0,18,14.746a2.731,2.731,0,0,0,.048,2.3H18.1v.1l.719,1.2a1.438,1.438,0,0,1-.383.383L17.238,18h-.144a2.587,2.587,0,0,0-1.2-.288,2.875,2.875,0,0,0-2.683,1.869v.144h0l-.431,1.437H12.3l-.383-1.39h0v-.1a2.875,2.875,0,0,0-2.731-1.917,2.587,2.587,0,0,0-1.2.288H7.846l-1.2.719a1.437,1.437,0,0,1-.383-.383l.719-1.2v-.1h.048a2.731,2.731,0,0,0,.048-2.3A2.923,2.923,0,0,0,5.45,13.213H5.306l-1.39-.431V12.3l1.39-.383H5.45a2.923,2.923,0,0,0,1.629-1.581,2.731,2.731,0,0,0-.048-2.3H6.984v-.1l-.719-1.2.383-.383,1.2.719H7.99a2.588,2.588,0,0,0,1.2.288A2.875,2.875,0,0,0,11.871,5.5V5.354h0L12.3,3.917h.479l.383,1.39h0v.1A2.875,2.875,0,0,0,15.9,7.319a2.588,2.588,0,0,0,1.2-.287h.144l1.2-.719a1.437,1.437,0,0,1,.383.383l-.719,1.2v.1h-.048A2.731,2.731,0,0,0,18,10.29a2.923,2.923,0,0,0,1.629,1.581h.144l1.39.383v.479l-1.39.383Z" transform="translate(-2 -2)" fill="#bbd84c"/>
      <path id="Path_182" data-name="Path 182" d="M19.313,15a4.313,4.313,0,1,0,4.313,4.313A4.313,4.313,0,0,0,19.313,15Zm0,6.708a2.4,2.4,0,1,1,2.4-2.4A2.4,2.4,0,0,1,19.313,21.708Z" transform="translate(-8.771 -8.771)" fill="#bbd84c"/>
    </g>
  </g>
</svg>
