<svg xmlns="http://www.w3.org/2000/svg" xmlns:xlink="http://www.w3.org/1999/xlink" width="123.568" height="123.568" viewBox="0 0 123.568 123.568">
  <defs>
    <filter id="Path_209" x="0" y="0" width="123.568" height="123.568" filterUnits="userSpaceOnUse">
      <feOffset dy="3" input="SourceAlpha"/>
      <feGaussianBlur stdDeviation="3" result="blur"/>
      <feFlood flood-opacity="0.161"/>
      <feComposite operator="in" in2="blur"/>
      <feComposite in="SourceGraphic"/>
    </filter>
  </defs>
  <g id="Group_408" data-name="Group 408" transform="translate(9 6)">
    <g transform="matrix(1, 0, 0, 1, -9, -6)" filter="url(#Path_209)">
      <path id="Path_209-2" data-name="Path 209" d="M603.008,294.19a52.755,52.755,0,0,1-3.634,19.291,51.647,51.647,0,0,1-7.336,12.894c-.532.7-1.087,1.381-1.675,2.049a52.065,52.065,0,0,1-11.321,9.985c-1.132.736-2.287,1.438-3.476,2.083a52.82,52.82,0,0,1-54.545-2.332c-.215-.147-.43-.294-.645-.453a47.817,47.817,0,0,1-5.479-4.313c-.192-.17-.385-.34-.566-.521-1.189-1.087-2.321-2.242-3.4-3.442-.045-.057-.1-.113-.147-.17a52.782,52.782,0,1,1,92.221-35.072" transform="translate(-488.44 -235.4)" fill="#fff"/>
    </g>
    <path id="Path_210" data-name="Path 210" d="M518.819,330.436a47.812,47.812,0,0,1-5.48-4.313c-.193-.17-.385-.34-.566-.521-1.189-1.087-2.321-2.242-3.4-3.442-.045-.057-.1-.113-.147-.17,3.317-9.068,8.672-22.71,12.748-25.3a1.606,1.606,0,0,0,.17-.125,1.738,1.738,0,0,0,.193-.113c1.732-.227-.408,15.453-3.521,33.985" transform="translate(-495.882 -234.129)" fill="#f7734f"/>
    <path id="Path_211" data-name="Path 211" d="M588.392,321.566a52.059,52.059,0,0,1-11.321,9.985c-1.132.736-2.287,1.438-3.476,2.083a52.82,52.82,0,0,1-54.545-2.332c-.215-.147-.43-.294-.645-.453a47.782,47.782,0,0,1-5.48-4.313c-.193-.17-.385-.34-.566-.521,1.245-8.513,2.875-16.506,4.947-22.031,1.257-3.351,2.66-5.774,4.257-6.883a1.62,1.62,0,0,0,.17-.125,1.719,1.719,0,0,0,.193-.113c8.468-5.378,31.484-3.623,45.657-1.325a13.779,13.779,0,0,1,9.125,5.91c3.555,5.174,8.932,13.495,11.683,20.117" transform="translate(-495.469 -234.541)" fill="#f7734f"/>
    <path id="Path_212" data-name="Path 212" d="M555.614,254.56s-.468-2.982,2.38-1.763,1.627,4.2,0,3.8a3.983,3.983,0,0,1-2.38-2.033" transform="translate(-489.759 -239.933)" fill="#7772d3"/>
    <path id="Path_213" data-name="Path 213" d="M561.986,271.516s-.446,8.042-4.068,8.413-8.947-4.207-8.947-4.207l2.5-9.052Z" transform="translate(-490.632 -238.062)"/>
    <path id="Path_214" data-name="Path 214" d="M537.654,270.157s-11.817-3.8-13.58-8.812,20.568,2.577,20.568,2.577Z" transform="translate(-493.935 -238.992)" fill="#5c5cc6"/>
    <path id="Path_215" data-name="Path 215" d="M553.28,284.141l-.917,12.787s-2.307,3.606-9.693,4.14c-5.5.4-7.422-.862-7.422-.862l.823-6.383.812-6.224,13.353-2.813Z" transform="translate(-492.445 -235.754)" fill="#f49282"/>
    <path id="Path_216" data-name="Path 216" d="M550.14,284.711a4.162,4.162,0,0,1-.377,1.214c-2.88,6.277-10.609,7.568-13.788,7.824l.812-6.224Z" transform="translate(-492.349 -235.679)"/>
    <path id="Path_217" data-name="Path 217" d="M534.993,262.311s-6.762,15.759-4.229,24.571,10.566,7.369,15.367,5.631a15.931,15.931,0,0,0,7.016-4.705,6.785,6.785,0,0,0,7.484-2.706c2.979-4.2,1.1-8.988-1.478-10.071s-5.614.79-5.614.79l2.363-4.583s-10.218-23.141-20.908-8.928" transform="translate(-493.112 -239.248)" fill="#f49282"/>
    <path id="Path_218" data-name="Path 218" d="M551.242,280.386a.566.566,0,0,1-.326-1.028l5.721-4.038a.566.566,0,0,1,.652.925l-5.721,4.037a.553.553,0,0,1-.326.1" transform="translate(-490.407 -236.933)"/>
    <path id="Path_219" data-name="Path 219" d="M556.254,280.009a.6.6,0,0,1-.146-.019l-3.733-1a.566.566,0,1,1,.292-1.094l3.734,1a.566.566,0,0,1-.146,1.113" transform="translate(-490.238 -236.581)"/>
    <path id="Path_220" data-name="Path 220" d="M544.258,268.752a.564.564,0,0,1-.451-.224,2.532,2.532,0,0,0-1.636-1.1,2.476,2.476,0,0,0-1.627.444.566.566,0,0,1-.7-.891,3.541,3.541,0,0,1,2.458-.676,3.587,3.587,0,0,1,2.4,1.54.566.566,0,0,1-.451.908" transform="translate(-491.866 -238.114)"/>
    <path id="Path_221" data-name="Path 221" d="M532.98,267.678a.567.567,0,0,1-.357-1.007,2.631,2.631,0,0,1,2.1-.745,1.523,1.523,0,0,1,1.018.711.566.566,0,0,1-.985.558.4.4,0,0,0-.266-.16c-.161-.032-.524.007-1.152.516a.559.559,0,0,1-.357.126" transform="translate(-492.819 -238.164)"/>
    <path id="Path_222" data-name="Path 222" d="M534.971,279.918a.564.564,0,0,1-.546-.419,12.631,12.631,0,0,1,.417-6.914.565.565,0,1,1,1.059.4,11.709,11.709,0,0,0-.384,6.223.568.568,0,0,1-.546.713" transform="translate(-492.597 -237.329)"/>
    <path id="Path_223" data-name="Path 223" d="M532.983,273.279a.554.554,0,0,1-.154-.022.566.566,0,0,1-.392-.7l.816-2.887a.566.566,0,0,1,1.09.308l-.816,2.887a.566.566,0,0,1-.544.412" transform="translate(-492.82 -237.72)"/>
    <path id="Path_224" data-name="Path 224" d="M541.16,273.5a.6.6,0,0,1-.154-.02.567.567,0,0,1-.391-.7l.814-2.887a.566.566,0,0,1,1.09.308l-.814,2.887a.567.567,0,0,1-.546.412" transform="translate(-491.739 -237.69)"/>
    <path id="Path_225" data-name="Path 225" d="M533.637,264.807s.934-1.259,4.081-1.253a6.807,6.807,0,0,1,4.965,2.239s.264,5.706,4.518,8.559,5.881,1.678,5.881,1.678l3.113-1.079,2.317-4.516-8.894-9.758-10.688-4.562L533.637,262Z" transform="translate(-492.658 -239.456)"/>
    <path id="Path_226" data-name="Path 226" d="M537.783,282.662a3.155,3.155,0,0,1-.356-.016.566.566,0,0,1,.115-1.125,3.718,3.718,0,0,0,3.607-1.988.567.567,0,0,1,1.021.491,4.733,4.733,0,0,1-4.388,2.638" transform="translate(-492.225 -236.405)"/>
    <path id="Path_227" data-name="Path 227" d="M533.277,261.93s4.458-12.672,20.264-9.96,10.52,22.806,10.52,22.806l-7.2-2.34Z" transform="translate(-492.706 -240.054)" fill="#7772d3"/>
    <path id="Path_228" data-name="Path 228" d="M529.216,259.933s5.534.2,19.791,6.8a97.485,97.485,0,0,1,9.2,4.933s-16.41-6.892-22.788-6.814a8.942,8.942,0,0,0-4.036.946Z" transform="translate(-493.242 -238.952)" fill="#5c5cc6"/>
    <path id="Path_229" data-name="Path 229" d="M540.142,300.039a22.977,22.977,0,0,1-4.96-.5.566.566,0,1,1,.264-1.1c.094.022,9.429,2.163,16.648-3.182a.566.566,0,1,1,.673.909,21.114,21.114,0,0,1-12.625,3.873" transform="translate(-492.512 -234.3)" fill="#46467f"/>
  </g>
</svg>
